# xmcd
#
# Track frame offsets:
#	182
#	14725
#	29257
#	38530
#	54095
#	71132
#	100970
#	115267
#	134030
#	149255
#	166005
#	187670
#	201042
#	214320
#	226522
#	237680
#	250127
#	266242
#	279995
#	295635
#
# Disc length: 4222 seconds
#
# Revision: 1
# Processed by: cddbd v1.4PL0 Copyright (c) Steve Scherf et al.
# Submitted via: CDmax 2.0
#
DISCID=21107c14
DTITLE=Waylon Jennings - Are You Ready For The Country/What Goes Around Come
DTITLE=s Around
DYEAR=2003
DGENRE=Country
TTITLE0=Are You Ready For The Country
TTITLE1=Them Old Love Songs
TTITLE2=So Good Woman
TTITLE3=Jack A Diamonds
TTITLE4=Can't You See
TTITLE5=MacArthur Park
TTITLE6=I'll Go Back To Her
TTITLE7=A Couple More Years
TTITLE8=Old Friend
TTITLE9=Precious Memories
TTITLE10=I Ain't Living Long Like This
TTITLE11=What Goes Around
TTITLE12=Another Man's Fool
TTITLE13=I Got The Train Sittin' Waitin'
TTITLE14=It's The World's Gone Crazy (Cotillion)
TTITLE15=Ivory Tower
TTITLE16=Out Among The Stars
TTITLE17=Come With Me
TTITLE18=If You See Her
TTITLE19=Old Love, New Eyes
EXTD=
EXTT0=
EXTT1=
EXTT2=
EXTT3=
EXTT4=
EXTT5=
EXTT6=
EXTT7=
EXTT8=
EXTT9=
EXTT10=
EXTT11=
EXTT12=
EXTT13=
EXTT14=
EXTT15=
EXTT16=
EXTT17=
EXTT18=
EXTT19=
PLAYORDER=
